<?xml version="1.0" standalone="no"?>
<!DOCTYPE svg PUBLIC "-//W3C//DTD SVG 20010904//EN"
 "http://www.w3.org/TR/2001/REC-SVG-20010904/DTD/svg10.dtd">
<svg version="1.0" xmlns="http://www.w3.org/2000/svg"
 width="225.000000pt" height="225.000000pt" viewBox="0 0 225.000000 225.000000"
 preserveAspectRatio="xMidYMid meet">

<g transform="translate(0.000000,225.000000) scale(0.100000,-0.100000)"
fill="#000000" stroke="none">
<path d="M948 1952 c35 -45 71 -136 58 -149 -2 -3 -14 13 -25 34 -39 77 -128
143 -193 143 l-33 0 3 -70 c2 -39 8 -68 13 -65 16 10 87 -15 119 -42 43 -35
70 -93 70 -148 0 -25 -3 -45 -6 -45 -3 0 -26 14 -50 31 -90 61 -347 169 -405
169 -87 0 -156 -142 -96 -198 13 -12 44 -29 70 -38 43 -14 48 -14 75 1 27 16
30 16 71 -4 117 -60 211 -233 211 -389 0 -42 -9 -71 -45 -145 -103 -213 -120
-420 -46 -570 27 -56 28 -60 15 -115 -8 -31 -14 -73 -14 -93 0 -40 30 -87 48
-75 20 12 69 90 116 184 38 76 46 100 46 149 1 126 65 215 193 268 l38 16 20
-45 c11 -25 25 -84 31 -132 6 -50 16 -88 23 -91 7 -2 48 21 91 52 44 31 106
72 140 91 80 45 102 68 83 90 -11 13 -26 15 -76 11 -35 -2 -63 -3 -63 -2 0 2
19 34 42 71 81 135 104 204 76 232 -7 7 -31 12 -55 12 -30 0 -43 4 -43 14 0
32 35 92 81 141 78 82 192 125 335 125 52 0 68 4 91 24 22 19 25 27 16 37 -6
6 -18 9 -25 7 -39 -15 -40 12 -2 53 39 41 23 65 -27 39 -23 -13 -25 -3 -3 21
17 19 12 39 -11 39 -7 0 -25 -15 -39 -32 -28 -35 -32 -34 -17 5 21 56 -27 37
-53 -20 l-17 -38 -129 0 -128 0 -7 61 c-13 124 -89 230 -207 290 -68 35 -145
38 -205 8 l-43 -21 0 36 c0 75 -20 94 -119 116 l-33 7 40 -50z m232 -427 c30
-18 68 -50 85 -70 l30 -37 -24 -19 c-32 -26 -113 -26 -151 1 -47 33 -87 139
-63 164 13 12 67 -5 123 -39z m318 -11 c4 -31 -40 -107 -75 -127 -39 -22 -88
-15 -104 15 -9 17 -6 26 23 55 33 35 124 86 143 80 6 -2 11 -12 13 -23z"/>
</g>
</svg>
